<svg height="500" viewBox="0 0 500 500" width="500" xmlns="http://www.w3.org/2000/svg" xmlns:xlink="http://www.w3.org/1999/xlink"><clipPath id="a"><path d="m0 0h500v500h-500z"/></clipPath><g clip-path="url(#a)"><path d="m79.579 236.726-77.308-77.307 77.307-77.8 26.265 26.265-33.2 32.707h251.742l-32.707-32.707 25.769-26.265 77.8 77.8-77.8 77.307-25.769-25.769 32.707-33.2h-251.744l33.2 33.2z" transform="translate(51.24 207.274)"/><path d="m3.375 193.985v-127.709l85.057-64.1 85.057 64.1v127.709h-74.7v-67.06h-20.465v67.059zm29.832-29.832h15.285v-67.059h80.126v67.059h15.039v-83.085l-55.225-41.419-55.225 41.419z" transform="translate(50.136 53.825)"/><path d="m3.375 193.985v-127.709l85.057-64.1 85.057 64.1v127.709h-74.7v-67.06h-20.465v67.059zm29.832-29.832h15.285v-67.059h80.126v67.059h15.039v-83.085l-55.225-41.419-55.225 41.419z" transform="translate(273 53.825)"/></g></svg>